<?xml version="1.0" encoding="UTF-8" standalone="no"?>
<!-- Created with Inkscape (http://www.inkscape.org/) -->

<svg
   width="210mm"
   height="297mm"
   viewBox="0 0 210 297"
   version="1.1"
   id="svg1"
   sodipodi:docname="brokenheart.svg"
   inkscape:version="1.4 (86a8ad7, 2024-10-11)"
   xmlns:inkscape="http://www.inkscape.org/namespaces/inkscape"
   xmlns:sodipodi="http://sodipodi.sourceforge.net/DTD/sodipodi-0.dtd"
   xmlns="http://www.w3.org/2000/svg"
   xmlns:svg="http://www.w3.org/2000/svg">
  <sodipodi:namedview
     id="namedview1"
     pagecolor="#ffffff"
     bordercolor="#000000"
     borderopacity="0.25"
     inkscape:showpageshadow="2"
     inkscape:pageopacity="0.0"
     inkscape:pagecheckerboard="0"
     inkscape:deskcolor="#d1d1d1"
     inkscape:document-units="mm"
     inkscape:zoom="1.0806047"
     inkscape:cx="347.49064"
     inkscape:cy="509.89971"
     inkscape:window-width="2560"
     inkscape:window-height="1494"
     inkscape:window-x="-11"
     inkscape:window-y="-11"
     inkscape:window-maximized="1"
     inkscape:current-layer="layer1" />
  <defs
     id="defs1" />
  <g
     inkscape:label="Katman 1"
     inkscape:groupmode="layer"
     id="layer1">
    <path
       style="fill:#ff0000;stroke-width:0.264999"
       d="m 104.30503,96.714756 c 0,-0.40808 0.40808,-1.224238 0,-1.224238 -0.40808,0 0,1.632318 0,1.224238 0,-0.816158 -0.146,-1.645481 0,-2.448475 0.0326,-0.179555 0.36065,-0.115801 0.48969,-0.244848 0.31079,-0.310783 0.15205,-0.942867 0.4897,-1.224238 0.33764,-0.281369 0.83112,-0.293137 1.22423,-0.489694 0.57158,-0.285789 1.31124,-0.93215 1.71394,-1.469085 0.5637,-0.751599 1.05002,-1.784567 1.71393,-2.448476 0.0577,-0.05771 0.16323,0 0.24485,0 0.16323,-0.163232 0.37092,-0.291745 0.48969,-0.489693 0.13279,-0.221313 0.0624,-0.552045 0.24485,-0.734544 0.11542,-0.115422 0.3437,0.073 0.4897,0 0.20647,-0.103235 0.27535,-0.403961 0.48969,-0.489694 1.28594,-0.514376 0.24058,0.49289 1.22424,-0.244848 0.27701,-0.207759 0.44643,-0.542467 0.73454,-0.734541 1.06911,-0.712743 2.39913,-1.186067 3.67271,-1.469086 0.23902,-0.05312 0.49445,0.04802 0.73454,0 0.35651,-0.0713 0.97702,-0.635651 1.22424,-0.734542 0.15156,-0.06062 0.33275,0.04484 0.4897,0 0.59765,-0.170759 1.11092,-0.583789 1.71393,-0.734544 1.01158,-0.252896 2.40384,0 3.42786,0 2.53009,0 5.06018,0 7.59028,0 1.47459,0 3.19597,-0.208018 4.6521,0 0.18066,0.0258 0.31074,0.209058 0.48969,0.244848 0.2401,0.04802 0.49912,-0.06727 0.73455,0 0.35095,0.100272 0.63763,0.361538 0.97939,0.489696 0.31508,0.118155 0.6784,0.09436 0.97939,0.244846 0.36499,0.182499 0.62507,0.53208 0.97938,0.734544 0.81563,0.466072 2.12409,0.860081 2.69333,1.713931 0.33541,0.503116 0.58886,0.980932 0.97939,1.469086 0.21631,0.270388 0.57968,0.424831 0.73454,0.734541 0.1095,0.218999 -0.0909,0.507209 0,0.734545 0.26904,0.672589 0.89973,1.309774 1.22424,1.958779 0.13058,0.26117 -0.13059,0.718219 0,0.979389 0.15485,0.309711 0.65056,0.398614 0.73454,0.734542 0.0594,0.237538 -0.048,0.494451 0,0.734544 0.22388,1.119389 0.27291,-0.174688 0.73454,0.97939 0.0909,0.227335 -0.0594,0.497004 0,0.734541 0.028,0.111977 0.16323,0.163232 0.24485,0.244848 0.0816,0.244848 0.19423,0.481463 0.24485,0.734542 0.064,0.320124 -0.146,0.687393 0,0.979389 0.10323,0.206476 0.38645,0.283224 0.48969,0.489697 0.1825,0.364998 -0.11211,0.83186 0,1.224237 0.10027,0.350954 0.40117,0.62529 0.4897,0.97939 0.11611,0.464447 0.0923,2.556797 0.24484,2.938167 0.0857,0.21434 0.38646,0.28322 0.4897,0.4897 0.37414,0.74827 -0.16854,2.09547 0,2.93817 0.13966,0.69828 0.50394,1.26699 0.73454,1.95878 0.26306,0.78918 0,4.96731 0,6.12118 0,1.95878 0,3.91756 0,5.87634 0,1.008 0.14198,2.1892 0,3.18302 -0.10652,0.74567 -0.73354,1.79288 -0.97939,2.44848 -0.0816,0.24484 -0.16323,0.48969 -0.24485,0.73454 0,0.16323 0.0448,0.33274 0,0.48969 -0.81576,2.85518 -0.0527,0.16942 -0.97939,1.71393 -0.32843,0.54739 -0.30802,1.16892 -0.48969,1.71394 -0.73941,2.21823 -0.13896,0.0684 -0.97939,1.46908 -0.7039,1.17316 -0.10279,2.72508 -0.73454,3.67271 -0.19208,0.28812 -0.54247,0.44644 -0.73454,0.73455 -0.14317,0.21474 -0.0836,0.533 -0.24485,0.73454 -0.18383,0.22979 -0.57131,0.24485 -0.73455,0.48969 -0.18666,0.28 -0.0814,0.68523 -0.24484,0.9794 -0.46074,0.82933 -1.53533,1.60156 -1.95878,2.44847 -1.28357,2.56715 1.09757,-0.8499 -0.73455,2.20363 -0.0939,0.15649 -0.38019,0.0988 -0.48969,0.24484 -0.44717,0.59623 -1.69632,2.08093 -1.95878,2.69333 -0.13256,0.3093 -0.11987,0.66695 -0.24485,0.97939 -0.2211,0.55274 -0.32624,-0.0273 -0.73454,0.24485 -0.34668,0.23111 -1.41205,2.63628 -1.95878,3.18301 -0.67449,0.67449 -1.7703,1.03576 -2.44847,1.71393 -0.20808,0.20808 -0.28162,0.52647 -0.4897,0.73455 -0.53311,0.53311 -1.41028,0.92058 -1.95878,1.46908 -0.50642,0.50642 -0.30017,0.65361 -0.73454,0.97939 -0.23542,0.17656 -0.55072,0.25991 -0.73454,0.4897 -0.68799,0.85998 0.29747,0.69507 -0.73455,1.46908 -0.13058,0.0979 -0.32646,0 -0.48969,0 -0.24485,0.40808 -0.43725,0.85262 -0.73455,1.22424 -0.051,0.0637 -0.16906,-0.0303 -0.24484,0 -0.33889,0.13556 -0.69899,0.25603 -0.97939,0.48969 -0.47106,0.39256 -1.0612,1.5509 -1.46909,1.95878 -0.34916,0.34917 -0.84176,0.20284 -1.22423,0.4897 -0.50437,0.37827 -0.4386,0.9977 -1.22424,1.46908 -0.13997,0.084 -0.35388,-0.0905 -0.4897,0 -0.33954,0.22637 -0.41588,0.72447 -0.73454,0.97939 -2.88952,2.31162 1.24633,-1.07573 -1.46908,0.73455 -0.48019,0.32012 -0.68841,1.0099 -1.22424,1.22423 -0.22734,0.0909 -0.51555,-0.1095 -0.73454,0 -0.16324,0.0816 -0.1158,0.36065 -0.24485,0.4897 -0.79607,0.79606 -2.07473,1.1383 -2.93817,1.71393 -0.19207,0.12805 -0.29175,0.37093 -0.4897,0.4897 -1.98804,1.19282 -0.10454,-0.0468 -0.97939,0.24484 -0.62264,0.20755 -2.21161,0.9031 -2.69332,1.22424 -0.44422,0.29615 -0.98441,1.01652 -1.46908,1.22424 -0.38252,0.16393 -0.82944,0.11324 -1.22424,0.24484 -0.60011,0.20004 -1.10674,1.22622 -1.71393,1.46909 -0.73606,0.29442 -0.65044,-0.32895 -1.22424,0.24485 -0.4399,0.4399 -0.72632,1.07568 -1.46908,1.22424 -0.2401,0.048 -0.50721,-0.0909 -0.73455,0 -0.73382,0.29353 -0.29547,0.54032 -0.73454,0.97939 -0.28155,0.28155 -0.93738,0.29845 -1.22424,0.48969 -0.0679,0.0453 0.0577,0.18714 0,0.24485 -0.28855,0.28855 -0.63985,0.50818 -0.97939,0.73454 -0.38994,0.25996 -1.474335,0.73717 -1.958777,0.97939 -0.426953,0.21347 -1.039701,0.0603 -1.469086,0.48969 -0.05771,0.0577 0.05771,0.18714 0,0.24485 -0.230843,0.23085 -0.669678,0.10324 -0.979389,0 -0.154855,-0.0516 0,-0.32646 0,-0.48969 0,-0.24485 -0.135816,-0.53082 0,-0.73454 0.559652,-0.83948 0.501354,0.43139 0.734541,-0.73455 0.08874,-0.44371 -0.111257,-1.02405 0,-1.46908 0.281348,-1.12539 0.244848,-0.0556 0.244848,-0.73454 0,-0.6837 0.184545,-5.01756 0,-5.38665 -0.0365,-0.073 -0.208346,0.073 -0.244848,0 -0.176823,-0.35365 -0.06802,-1.11543 -0.244845,-1.46908 -0.103238,-0.20648 -0.361646,-0.29763 -0.489696,-0.4897 -0.09055,-0.13582 0.05162,-0.33484 0,-0.48969 0.121909,-0.43376 -0.380405,-0.46132 -0.489694,-0.73455 -0.124978,-0.31244 -0.178853,-0.64941 -0.244848,-0.97939 -0.03201,-0.16006 0.09054,-0.35387 0,-0.48969 -0.39058,-0.58587 -0.97963,-0.73526 -1.224237,-1.46909 -0.07743,-0.23228 0.04802,-0.49445 0,-0.73454 -0.309232,-1.54615 -0.04988,-0.0499 -0.489696,-0.48969 -0.115422,-0.11543 0.073,-0.3437 0,-0.4897 -0.606529,-1.21306 -1.580523,-2.18166 -2.203628,-3.42786 -0.255831,-0.51167 -0.338547,-1.26137 -0.734541,-1.71394 -0.489696,-0.48969 -0.97939,-0.97939 -1.469086,-1.46908 -0.08162,0 -0.187137,0.0577 -0.244848,0 -0.526526,-0.21499 -0.398031,-0.88773 -0.734542,-1.22424 0.210802,-1.46553 -0.721299,-0.2316 -0.979389,-0.48969 -1.599348,-1.59935 1.466935,0.78179 -0.734542,-0.97939 -0.229788,-0.18383 -0.526462,-0.28162 -0.734544,-0.4897 -0.05771,-0.0577 0,-0.16323 0,-0.24485 -0.163232,-0.16323 -0.305019,-0.35118 -0.489693,-0.48969 -0.595564,-0.44667 -2.121363,-1.79425 -2.448476,-2.44848 -0.073,-0.14599 0.073,-0.34369 0,-0.48969 -0.304397,-0.6088 -1.100888,-1.16164 -1.469085,-1.71393 -0.143164,-0.21475 -0.101685,-0.5198 -0.244848,-0.73455 -0.192075,-0.28811 -0.542468,-0.44643 -0.734542,-0.73454 -0.143163,-0.21474 -0.101685,-0.5198 -0.244848,-0.73454 -0.192074,-0.28811 -0.518231,-0.46415 -0.734541,-0.73454 -0.285256,-0.35657 -0.293225,-0.8313 -0.489697,-1.22424 -0.45357,-0.90714 -1.247584,-1.76063 -1.713931,-2.69332 -0.252317,-0.50464 -0.259043,-1.38215 -0.489696,-1.95878 -0.400449,-1.00113 -1.041844,-1.84382 -1.224237,-2.93817 -0.09888,-0.59327 -0.08523,-1.88983 -0.244846,-2.44848 -0.478753,-0.71812 -0.531802,-0.65811 -0.734544,-1.46908 -0.284118,-1.13648 -0.395491,-2.78712 -0.489694,-3.91756 -0.02711,-0.32534 0.07918,-0.66268 0,-0.97939 -0.08852,-0.3541 -0.389424,-0.62844 -0.489696,-0.97939 -0.229401,-0.80291 0.0403,-1.59303 -0.244848,-2.44848 -0.0051,-0.0153 -0.69156,-1.65791 -0.734541,-1.95878 -0.196702,-1.37691 -0.04836,-2.78696 -0.244848,-4.1624 -0.131882,-0.92318 -0.233704,-2.0422 -0.489694,-2.93817 -0.05014,-0.17548 -0.214847,-0.30968 -0.244848,-0.4897 -0.148283,-0.88969 -0.182216,-7.19737 0,-7.83512 0.100272,-0.35095 0.361535,-0.63763 0.489694,-0.97939 0.624146,-1.66439 0.01209,-0.3173 0.244848,-1.71393 0.159763,-0.95858 0.721725,-1.79149 0.979389,-2.693323 0.06727,-0.235427 -0.04802,-0.494448 0,-0.734542 0.190289,-0.951442 0.884897,-2.089817 1.224238,-2.938169 0.328864,-0.822158 0.33927,-1.902774 0.734544,-2.693323 0.160954,-0.321911 0.774211,-1.05873 0.97939,-1.469086 0.516625,-0.406371 0.06047,-1.008142 0.244848,-1.469083 0.128598,-0.3215 0.625041,-0.406045 0.734541,-0.734544 0.05162,-0.154855 -0.073,-0.343694 0,-0.489693 0.0365,-0.073 0.171847,0.0365 0.244848,0 0.103235,-0.05162 0.152509,-0.175594 0.244846,-0.244849 2.17556,-1.631669 2.95584,-1.224237 5.631492,-1.224237 2.203627,0 4.407257,0 6.610884,0 0.716172,0 2.07966,-0.30683 2.693321,0 0.206473,0.103238 0.30502,0.351189 0.489696,0.489696 1.126215,0.844661 -0.257151,-0.497898 1.224238,0.489693 0.06791,0.04527 -0.073,0.208349 0,0.244848 0.364995,0.182499 0.828341,-0.09897 1.224237,0 0.285483,0.07137 0.455372,0.39664 0.734542,0.489697 0.244848,0.08162 0.489693,-0.163232 0.734541,0 0.299974,0.199982 0.113583,0.609171 0.489697,0.734541 0.581853,0.19395 0.444698,-0.289843 0.979389,0.244848 0.05771,0.05771 -0.0365,0.171847 0,0.244848 0.247288,0.494575 0.884238,0.639387 1.224237,0.97939 0.17272,0.172715 1.57902,2.17865 1.71393,2.448473 0.073,0.145999 -0.073,0.343696 0,0.489696 0.12474,0.249467 0.53589,0.535892 0.73455,0.734541 0.57131,0.571312 1.14262,1.142622 1.71393,1.713934 z"
       id="path1" />
    <path
       style="fill:#ffffff;fill-opacity:1;stroke-width:0.264999"
       d="m 103.32564,86.676009 c -0.32647,0.244848 -1.22424,0.408078 -0.97939,0.734542 0.24485,0.326464 1.05942,-1.134698 0.97939,-0.734542 -0.15101,0.75501 -0.8281,1.298544 -1.22424,1.958779 -0.2734,0.455674 -0.41618,1.044607 -0.73454,1.469086 -0.22507,0.300085 -0.61679,0.626115 -0.73455,0.97939 -0.13563,0.406892 0,1.308499 0,1.713931 0,1.413327 0.27693,5.013473 0,6.121188 -0.028,0.111977 -0.16323,0.163232 -0.24484,0.244848 -0.0816,0.163232 -0.20906,0.31074 -0.24485,0.489694 -0.239876,1.199385 0,2.679775 0,3.917565 0,1.87716 0,3.75432 0,5.63149 0,0.72873 -0.178429,1.73475 0,2.44847 0.0443,0.17705 0.20906,0.31074 0.24485,0.4897 0.096,0.48018 -0.11877,0.99401 0,1.46908 0.028,0.11198 0.22221,0.13167 0.24484,0.24485 0,2.56022 -0.14599,-0.0943 0.24485,1.46908 0.0792,0.31672 -0.12124,0.67628 0,0.97939 0.57779,1.44447 0.44494,0.0211 0.73455,1.46909 0.0928,0.46393 0.0962,1.02326 0.24484,1.46908 0.0577,0.17314 0.16323,0.32647 0.24485,0.4897 0.16323,0.32646 0.37427,0.63312 0.4897,0.97939 0.12904,0.38714 -0.099,0.82834 0,1.22424 0.028,0.11197 0.20198,0.13768 0.24484,0.24484 0.3138,0.7845 0.13356,1.00167 0.4897,1.71394 0.31748,0.63497 0.94792,1.75769 1.22424,2.44847 0.35598,0.88997 -0.16846,3.15167 0,4.16241 0.06,0.36003 0.41811,0.62148 0.48969,0.97939 0.13376,0.66881 -0.21569,1.55654 0,2.20363 0.12905,0.38713 0.55204,0.61439 0.73454,0.97939 0.34377,0.68752 -0.25789,4.59993 0,5.63149 0.028,0.11197 0.21686,0.13287 0.24485,0.24485 0.21766,0.87061 0.0889,9.03748 -0.24485,10.03874 -0.12904,0.38714 -0.55204,0.61439 -0.73454,0.97939 -0.30152,0.60305 0.71073,-0.22103 -0.24485,0.73454 -0.0577,0.0577 -0.18713,-0.0577 -0.24484,0 -0.17798,0.17798 -0.31172,1.04627 -0.4897,1.22424 -0.0759,0.0759 -0.68767,0.25532 -0.73454,0.4897 -0.08,0.40015 0.1825,0.85924 0,1.22423 -0.1316,0.26321 -0.35809,0.47134 -0.4897,0.73455 -0.0365,0.073 0,0.16323 0,0.24484 -0.0816,0.24485 -0.12942,0.5037 -0.24484,0.73455 -0.5095,1.01899 0.0169,-0.26175 -0.4897,0.24484 -0.0662,0.0662 -0.15101,1.18758 -0.24485,1.46909 -0.16323,0.48969 -0.38846,0.96292 -0.48969,1.46908 -0.21116,1.05577 0.36343,4.41493 0,5.1418 -0.1664,0.33279 -0.56815,0.6466 -0.73455,0.97939 -0.073,0.146 0.073,0.3437 0,0.4897 -0.0914,0.18271 -0.40938,0.89907 -0.48969,0.97939 -0.12904,0.12904 -0.360647,0.1158 -0.489695,0.24484 -0.148553,0.14855 -0.556985,1.29153 -0.734542,1.46909 -0.129045,0.12904 -0.388464,0.093 -0.489696,0.24485 -0.135816,0.20372 0.203727,0.59872 0,0.73454 -0.214744,0.14316 -0.519795,0.10168 -0.734541,0.24485 -0.135816,0.0905 0.073,0.34369 0,0.48969 -0.225383,0.45077 -0.509159,0.0389 -0.734542,0.48969 -0.237104,0.47421 -0.02776,0.79007 -0.244848,1.22424 -0.0365,0.073 -0.187137,-0.0577 -0.244848,0 -0.297797,0.2978 0.143348,1.77358 0,2.20363 -0.0365,0.1095 -0.20198,0.13768 -0.244848,0.24485 -0.124976,0.31244 -0.11987,0.66695 -0.244846,0.97939 -0.165753,0.41438 -0.537379,0.76419 -0.734544,1.22424 -0.132559,0.3093 -0.119869,0.66694 -0.244848,0.97938 -0.399918,0.9998 -0.979389,0.0476 -0.979389,1.46909 0,0.89976 0.08921,0.65673 0.734544,0.97939 0.455308,0.22765 1.670084,0 2.203627,0 0.260451,0 1.734434,0.22435 1.958779,0 0.04512,-0.0451 0.199731,-0.68943 0.244848,-0.73454 0.05771,-0.0577 0.187135,0.0577 0.244846,0 0.05771,-0.0577 -0.04897,-0.17956 0,-0.24485 0.207761,-0.27701 0.556392,-0.43762 0.734543,-0.73454 0.084,-0.13997 -0.0396,-0.33134 0,-0.4897 0.10572,-0.42287 0.35154,-0.80977 0.48969,-1.22423 0.12243,-0.36728 -0.24484,-0.24485 0,-0.73455 0.0365,-0.073 0.20835,0.073 0.24485,0 0.23559,-0.47117 -0.35722,-1.84641 0,-2.20362 0.5066,-0.5066 -0.0198,0.77414 0.4897,-0.24485 0.39449,-0.789 -0.25884,-4.10647 0,-5.1418 0.17566,-0.70263 0.32207,-0.56692 0.48969,-0.73454 0.11542,-0.11542 -0.0396,-0.33134 0,-0.4897 0.34102,-1.36406 0.0416,-0.18486 0.73455,-1.22423 0.20177,-0.30267 0.15811,-0.87731 0.24484,-1.22424 0.29559,-1.18236 0.11636,0.0121 0.4897,-0.73454 0.16122,-0.32245 -0.11455,-0.88061 0,-1.22424 0.0425,-0.12755 0.66858,-0.89144 0.73454,-0.97939 0.13851,-0.18468 0.36164,-0.29762 0.4897,-0.4897 0.15067,-0.22601 -0.15068,-0.75337 0,-0.97939 0.10123,-0.15184 0.36064,-0.1158 0.48969,-0.24484 0.41616,-0.41616 0.67659,-0.96442 0.97939,-1.46909 0.1088,-0.18134 -0.095,-0.54449 0,-0.73454 0.0816,-0.16323 0.1158,-0.36065 0.24485,-0.4897 0.0577,-0.0577 0.22505,0.0792 0.24484,0 0.099,-0.39589 -0.28855,-0.93568 0,-1.22423 0.12905,-0.12905 0.36065,-0.1158 0.4897,-0.24485 0.18866,-0.18867 0.56071,-1.66906 0.73454,-1.95878 0.11877,-0.19795 0.36165,-0.29762 0.4897,-0.4897 0.0453,-0.0679 -0.0577,-0.18713 0,-0.24484 0.0577,-0.0577 0.18713,0.0577 0.24484,0 0.17314,-0.17314 -0.13581,-0.53082 0,-0.73455 0.10124,-0.15184 0.36065,-0.1158 0.4897,-0.24484 0.0772,-0.0772 0.56098,-1.23767 0.73454,-1.46909 -0.60419,-0.74127 0.666,-0.42115 0.73455,-0.48969 0.42403,-0.42404 0.1277,-0.98643 0.48969,-1.46909 0.23833,-0.31777 0.82145,-0.50557 0.97939,-0.97939 0.11687,-0.35061 0.10949,-5.79271 0,-6.12119 -0.1486,-0.4458 -0.34109,-0.77843 -0.48969,-1.22423 -0.0735,-0.22037 0.0735,-0.51418 0,-0.73454 -0.17314,-0.51941 -0.56141,-0.94969 -0.73455,-1.46909 -0.2124,-0.63722 -0.27777,-1.32302 -0.48969,-1.95878 -0.0735,-0.22036 0.0734,-0.51418 0,-0.73454 -0.59118,-1.77353 0.0706,0.38603 -0.4897,-0.73455 -0.15296,-0.30593 -0.22465,-1.18384 -0.48969,-1.71393 -0.16123,-0.32244 0.11454,-0.8806 0,-1.22423 -0.0365,-0.1095 -0.16323,-0.16324 -0.24485,-0.24485 0,-0.24485 0.0594,-0.49701 0,-0.73454 -0.0754,-0.30168 -0.61455,-0.61941 -0.73454,-0.97939 -0.10324,-0.30971 0.0792,-0.66268 0,-0.9794 -0.056,-0.22395 -0.38646,-0.28322 -0.4897,-0.48969 -0.38918,-0.77836 0.27737,-2.10607 0,-2.93817 -0.11542,-0.34627 -0.37427,-0.63312 -0.48969,-0.97939 -0.46611,-1.39833 0.46955,-5.69193 0,-7.10058 -0.2607,-0.78208 -0.0266,-1.54897 -0.24485,-2.20362 -0.41974,-1.25922 0.0117,0.19821 -0.73454,-0.73455 -1.40523,-0.0831 -0.29314,-0.83112 -0.4897,-1.22423 -0.10323,-0.20648 -0.38646,-0.28322 -0.48969,-0.4897 -0.1175,-0.23499 0.0784,-0.74425 0,-0.97939 -0.0365,-0.1095 -0.19323,-0.14161 -0.24485,-0.24485 -0.0677,-0.13544 -0.20878,-0.87118 -0.24485,-0.97938 -0.24041,-0.72125 0.0406,-1.59225 -0.24484,-2.44848 -0.29779,-0.89335 0,-6.54183 0,-8.07997 0,-0.21063 -0.12647,-1.34262 0,-1.469083 0.12904,-0.129046 0.40808,-0.08161 0.48969,-0.244846 0.1095,-0.218998 -0.0594,-0.497006 0,-0.734544 0.0858,-0.343141 0.24485,-0.308454 0.24485,-0.734541 0,-0.631593 0.2417,-0.728253 0.48969,-1.224238 0.4156,-0.831199 -0.29316,-2.303518 0,-3.183017 0.25475,-0.764249 0.16323,0.08162 0.4897,-0.244848 0.0552,-0.05524 0.20168,-1.944656 0.24484,-2.203627 0.48832,-2.929896 -0.067,-0.110829 0.4897,-1.224238 0.15229,-0.30457 0.16893,-2.110616 0,-2.448475 -0.27069,-0.541369 -0.15196,-0.07598 -0.4897,-0.244846 -1.39928,-0.69964 -1.1415,-0.536493 -3.18301,-0.244848 z"
       id="path6" />
    <path
       style="fill:#ff1f1f;fill-opacity:1;stroke-width:0.264999"
       d="m 99.408077,83.982686 c 0.42926,-1.283647 -1.165971,-1.200997 -1.469083,-1.958779 -0.928299,-2.320745 0.91091,0.421216 -0.489697,-0.97939 -0.115421,-0.115422 0.115422,-0.374274 0,-0.489696 -0.231425,-0.231423 -0.553997,0.296783 -0.734541,-0.244848 -0.05162,-0.154853 0,-0.326461 0,-0.489693 -0.08162,-0.163233 -0.17707,-0.32025 -0.244848,-0.489697 -0.191707,-0.479263 -0.179986,-1.056137 -0.489694,-1.469083 -0.1095,-0.145999 -0.36065,-0.115803 -0.489696,-0.244848 -0.150138,-0.150138 -0.339558,-0.829252 -0.489696,-0.979389 -0.237948,-0.237951 -0.666946,-0.119872 -0.979389,-0.244848 -1.046552,-0.418621 0.08255,-0.02658 -0.97939,-0.734542 -0.135816,-0.09055 -0.326464,0 -0.489693,0 -0.463283,0 -3.051596,-0.188137 -3.427865,0 -0.753925,0.376963 -0.03076,1.499846 -0.489697,1.958779 -0.129045,0.129045 -0.360648,0.1158 -0.489693,0.244848 -0.296407,0.296405 -0.242819,0.977358 -0.489696,1.224238 -0.05771,0.05771 -0.187137,-0.05771 -0.244848,0 -0.05771,0.05771 0,0.163229 0,0.244845 0,0.807355 -0.256892,2.167496 0,2.938172 0.06804,0.204131 0.783534,0.881462 0.979389,0.979389 0.292,0.146 0.657371,-0.05367 0.97939,0 1.838677,0.306446 3.507907,1.224238 5.386647,1.224238 1.717455,0 2.926019,-0.05818 4.6521,-0.489696 z"
       id="path7" />
    <path
       style="fill:#ff1f1f;fill-opacity:1;stroke-width:0.264999"
       d="m 122.91344,69.781533 c -1.13801,-0.322149 -2.26598,-0.244848 -3.42787,-0.244848 -0.61562,0 -4.75159,-0.260133 -5.1418,0 -0.0761,0.05073 -1.91552,3.053241 -1.95878,3.183017 -0.0774,0.232283 0.17314,0.561408 0,0.734544 -0.0577,0.05771 -0.18713,-0.05771 -0.24484,0 -0.11543,0.115422 0.073,0.343694 0,0.489693 -0.16126,0.322517 -0.57329,0.656876 -0.73454,0.97939 -0.073,0.146 0.0606,0.33814 0,0.489696 -0.13556,0.338892 -0.35414,0.640498 -0.4897,0.97939 -0.16678,0.416962 0.19752,1.074049 0,1.469085 -0.21283,0.425657 -0.52171,0.798582 -0.73454,1.224238 -0.0743,0.14868 -0.0173,1.460458 0,1.469083 0.146,0.073 0.34369,0.073 0.48969,0 0.29382,-0.146907 0.44073,-0.587634 0.73455,-0.734541 0.23084,-0.115422 0.533,-0.08362 0.73454,-0.244849 0.22978,-0.183829 0.28161,-0.526462 0.48969,-0.734541 0.20808,-0.208082 0.49913,-0.313134 0.73454,-0.489696 0.48506,0.02445 0.11581,-0.360648 0.24485,-0.489694 0.1825,-0.182499 0.5198,-0.101684 0.73454,-0.244848 0.37379,-0.249192 0.36076,-0.730197 0.73455,-0.979389 0.63126,-0.420844 1.34173,-0.271757 1.95878,-0.734544 0.13519,-0.101391 0.74153,-0.919925 0.97939,-0.97939 0.31671,-0.07918 0.74854,0.230846 0.97939,0 0.40523,-0.405233 0.39348,-1.176134 0.97939,-1.469083 0.44237,-0.221189 2.02055,-1.011404 2.20362,-1.469086 0.28756,-0.718897 0.4897,-1.469086 0.73455,-2.203627 z"
       id="path8" />
    <path
       style="fill:#ff1f1f;fill-opacity:1;stroke-width:0.264999"
       d="m 105.77411,81.289365 c -0.0816,-0.40808 0.16323,-1.305853 -0.24485,-1.224237 -0.40808,0.08162 0.11325,1.619041 0.24485,1.224237 0.20648,-0.619421 -0.1168,-1.316387 0,-1.958782 0.4914,-2.702697 0.20751,-0.207507 0.73454,-0.734541 0.18796,-0.187955 0.14056,-0.7708 0.24485,-0.97939 0.0365,-0.073 0.18714,0.05771 0.24485,0 0.12905,-0.129045 0.1158,-0.360648 0.24485,-0.489696 0.12623,-0.126227 2.32224,-0.126227 2.44847,0 0.94465,0.94465 0.29583,1.071293 0,1.958782 -0.0258,0.07743 0.0577,0.187134 0,0.244845 -0.18325,0.183248 -0.78381,0.09854 -0.97939,0.489697 -0.12878,0.257566 -0.36635,1.162565 -0.48969,1.224237 -0.0816,0.04081 -0.57131,-0.0204 -0.73455,0 -0.57265,0.07158 -1.14262,0.163232 -1.71393,0.244848 z"
       id="path9" />
  </g>
</svg>
