<?xml version="1.0" encoding="UTF-8" standalone="no"?>
<!-- Created with Inkscape (http://www.inkscape.org/) -->

<svg
   width="210mm"
   height="297mm"
   viewBox="0 0 210 297"
   version="1.1"
   id="svg1"
   sodipodi:docname="brokenheart.svg"
   inkscape:version="1.4 (86a8ad7, 2024-10-11)"
   xmlns:inkscape="http://www.inkscape.org/namespaces/inkscape"
   xmlns:sodipodi="http://sodipodi.sourceforge.net/DTD/sodipodi-0.dtd"
   xmlns="http://www.w3.org/2000/svg"
   xmlns:svg="http://www.w3.org/2000/svg">
  <sodipodi:namedview
     id="namedview1"
     pagecolor="#ffffff"
     bordercolor="#000000"
     borderopacity="0.25"
     inkscape:showpageshadow="2"
     inkscape:pageopacity="0.0"
     inkscape:pagecheckerboard="0"
     inkscape:deskcolor="#d1d1d1"
     inkscape:document-units="mm"
     inkscape:zoom="1.0806047"
     inkscape:cx="347.49062"
     inkscape:cy="509.89969"
     inkscape:window-width="2560"
     inkscape:window-height="1494"
     inkscape:window-x="-11"
     inkscape:window-y="-11"
     inkscape:window-maximized="1"
     inkscape:current-layer="layer1" />
  <defs
     id="defs1" />
  <g
     inkscape:label="Katman 1"
     inkscape:groupmode="layer"
     id="layer1">
    <path
       style="fill:#ff0000;stroke:#ffffff;stroke-width:0.264999"
       d="m 78.323622,99.094484 c -0.386832,-0.129956 -1.030547,-0.776687 -1.160502,-0.389855 -0.129947,0.386829 1.525077,0.573211 1.160502,0.389855 -0.877992,-0.44157 -1.829234,-0.726181 -2.70723,-1.167761 -0.439899,-0.221239 -0.731372,-0.770117 -1.314267,-0.854777 -0.288976,-0.04197 -0.234628,0.332891 -0.541816,-0.0787 -0.146425,-0.196237 -0.05792,-0.523858 -0.230649,-0.697388 -0.228134,-0.229218 -0.672262,-0.266843 -0.92804,-0.466749 -0.62823,-0.490996 -0.835941,-1.305522 -1.389338,-1.861524 -0.238552,-0.239666 -1.06241,-0.221987 -1.392969,-0.312972 -0.387927,-0.106769 -0.290715,-0.542671 -0.695571,-0.543623 -0.744366,-0.0017 -1.423711,0.461389 -2.169058,0.459484 -0.828112,-0.0019 -1.637146,0.200756 -2.478404,0.303912 -0.243019,0.02982 -0.452543,0.231194 -0.697388,0.230649 -1.34386,-0.0032 -2.539779,-0.172355 -3.871367,-0.0091 -0.571684,0.0701 -4.946809,1.496102 -5.346657,1.768314 -1.473474,1.003113 -0.23337,0.464018 -1.164137,1.158689 -0.130815,0.09761 -0.391582,0.0079 -0.464922,0.153765 -0.082,0.163045 0.0033,0.37877 -0.0787,0.541815 -0.184846,0.367522 -0.93706,0.357209 -1.008555,0.84934 -0.03709,0.255416 0.06668,0.525437 -0.0018,0.774269 -0.06831,0.248171 -0.991553,0.430211 -1.085436,0.616882 -0.03666,0.0729 0.113545,0.159561 0.07688,0.232471 -0.07334,0.14582 -0.349238,0.0386 -0.464931,0.15376 -0.208565,0.20759 -0.411403,0.43269 -0.543624,0.69557 -0.03666,0.0729 0.08862,0.1517 0.07688,0.23247 -0.09209,0.63405 -0.763886,1.23992 -0.933475,1.85608 -0.116615,0.42367 0.383577,1.51704 0.3826,1.93659 -2.7e-4,0.11543 -0.13899,0.19513 -0.155581,0.30935 -0.05437,0.37432 0.15284,0.85973 0.151957,1.23919 -0.0016,0.68454 -0.15768,1.20519 -0.159216,1.8579 -9e-4,0.38714 0.385331,0.77518 0.384417,1.16232 -0.0014,0.60656 0.07466,1.18502 0.07326,1.78101 -8.55e-4,0.36499 0.0066,0.75754 -0.157399,1.08363 -0.03666,0.0729 -0.220724,-0.004 -0.232465,0.0769 -0.04333,0.29832 0.308238,0.62722 0.307533,0.92985 -7.34e-4,0.29428 -0.270092,0.55907 -0.234274,0.85116 0.06954,0.56705 0.573067,1.05699 0.538182,1.62724 -0.01407,0.2304 -0.277981,0.39024 -0.311163,0.6187 -0.02346,0.16154 0.154131,0.3017 0.153764,0.46492 -2.7e-4,0.11542 -0.155301,0.19393 -0.155572,0.30935 -0.0014,0.58403 0.69845,1.28563 0.615066,1.85971 -0.04231,0.29121 -0.216313,0.55743 -0.234283,0.85115 -0.01993,0.32585 0.283276,0.60429 0.307533,0.92986 0.01354,0.182 -0.106733,0.36147 -0.0787,0.5418 0.155023,0.99694 1.604896,5.38187 2.07585,6.27652 0.313509,0.59554 0.605219,1.22893 1.079998,1.70594 0.16285,0.16361 0.480621,0.12616 0.618687,0.31116 0.244086,0.32704 0.09654,0.87309 0.384417,1.16232 0.20759,0.20856 0.48799,0.33505 0.69558,0.54362 0.115153,0.11569 0.0252,0.3644 0.153768,0.46493 0.400729,0.31318 0.909459,0.5384 1.314268,0.85478 0.530805,0.0569 0.302649,0.61445 0.539999,0.85297 0.162844,0.16362 0.436806,0.16902 0.61869,0.31117 0.27211,0.21266 0.395916,0.86343 0.616883,1.08543 0.244268,0.24542 0.756945,0.1657 0.928037,0.46674 0.161282,0.28383 0.09724,0.68014 0.307533,0.92985 0.117576,0.13958 0.424256,-0.0609 0.541816,0.0787 1.415562,1.68092 -0.06558,0.4515 0.384413,1.16231 -0.186985,0.7599 0.554146,0.48359 0.772456,0.77609 0.440858,0.5907 0.610224,1.84507 0.845714,2.5571 0.177557,0.53686 0.3142,1.71264 0.69195,2.09217 0.05758,0.0579 0.188798,-0.14586 0.232466,-0.0769 0.218307,0.34479 0.01984,0.97896 0.384417,1.16232 0.0729,0.0367 0.17489,-0.13473 0.232466,-0.0769 0.230305,0.23139 0.112264,0.66823 0.307533,0.92986 0.06904,0.0925 0.227923,0.0738 0.30934,0.15558 0.152522,0.15321 0.10049,0.52295 0.230649,0.69739 0.271686,0.36402 0.842022,0.61038 1.081815,0.93167 0.09761,0.13081 0.04864,0.34006 0.153765,0.46492 0.428881,0.50929 0.99768,0.84715 1.468035,1.31971 0.439116,0.44119 0.812678,1.23846 1.312458,1.62907 0.545087,0.426 1.453324,0.68405 1.932958,1.16594 0.872805,0.8769 2.184917,1.51226 3.324119,2.25318 0.231858,0.18122 0.463716,0.36243 0.695571,0.54363 0.02562,0.0775 0.01931,0.17462 0.07688,0.23246 0.46938,0.47159 1.361313,0.28118 1.779202,0.70102 0.399819,0.4017 0.291703,0.64378 0.772456,0.77609 0.248841,0.0685 0.543722,-0.1141 0.774272,0.002 0.163042,0.082 0.208212,0.34802 0.38623,0.38804 0.328332,0.0738 0.670857,-0.0956 1.006738,-0.0751 0.230409,0.0141 0.396127,0.2499 0.6187,0.31116 0.133258,0.0367 0.641014,-0.0349 0.774269,0.002 1.645033,0.45279 0.209123,0.0549 0.695584,0.54363 0.65599,0.65907 2.842851,0.96111 3.40281,1.71138 0.3934,0.5271 0.737637,1.22912 1.312454,1.62906 0.378977,0.26369 0.911692,0.29509 1.237387,0.62232 0.115153,0.11569 0.03861,0.34923 0.153765,0.46492 0.162854,0.16362 0.429205,0.17932 0.61869,0.31117 1.542264,1.07307 -0.602061,-0.29445 0.539999,0.85297 0.162851,0.16361 0.436812,0.16901 0.618697,0.31115 0.192913,0.15078 0.08423,0.50116 0.230649,0.69739 0.185209,0.24822 0.742793,0.21854 0.92804,0.46675 0.685699,0.91874 0.641731,3.43869 1.383896,4.18434 0.206136,0.20709 0.412565,0.10406 0.618691,0.31116 0.508844,0.51123 0.402117,1.05661 0.770647,1.55036 1.118176,1.4982 -0.188244,-0.34433 0.695581,0.54362 0.328535,0.33009 -0.06946,0.54645 0.539989,0.85298 0.0729,0.0367 0.159557,-0.11355 0.232466,-0.0769 0.40158,0.20197 0.418197,0.48469 0.539999,0.85297 0.538182,1.62724 1.076367,3.25449 1.614549,4.88174 0.205023,0.6199 0.410043,1.2398 0.615066,1.8597 0.05126,0.15498 -0.0012,0.51618 0.153765,0.46493 0.01196,-0.004 -0.230769,-0.64775 -0.230649,-0.69739 0.0016,-0.66907 0.457061,-0.86138 0.545437,-1.46985 0.0423,-0.29121 0.102055,-0.58826 0.234273,-0.85116 0.03666,-0.0729 0.195793,-0.004 0.232466,-0.0769 0.103719,-0.20623 -0.411252,-0.72363 -0.307533,-0.92985 0.082,-0.16305 0.306047,-0.22319 0.388047,-0.38624 0.04187,-0.0833 0.259825,-1.28729 0.312975,-1.39296 0.03666,-0.0729 0.195783,-0.004 0.232456,-0.0769 0.151197,-0.30063 -0.123399,-0.67374 -0.07507,-1.00674 0.06296,-0.43345 0.559359,-0.80394 0.622318,-1.23739 0.0699,-0.4812 0.002,-1.1599 0.23609,-1.62543 0.03666,-0.0729 0.195793,-0.004 0.232466,-0.0769 0.125345,-0.24924 -0.0096,-0.92933 0.312975,-1.39297 1.58455,-2.27739 0.0733,-1.18667 0.78153,-3.09528 0.12047,-0.32464 0.37484,-0.59419 0.46674,-0.92804 0.0504,-0.18312 0.09,-0.94964 0.15739,-1.08362 0.0367,-0.0729 0.19579,-0.004 0.23247,-0.0769 0.11596,-0.23058 -0.0667,-0.52544 0.002,-0.77427 0.51383,-1.86684 -0.87731,-5.77166 -1.53041,-7.74637 -0.23865,-0.72157 -1.772763,-4.75221 -1.691435,-5.1142 0.06451,-0.28711 0.449913,-0.41663 0.543623,-0.69557 0.204425,-0.60854 -1.498841,-3.93813 -1.614549,-4.88174 -0.04441,-0.36229 0.213475,-0.72295 0.15739,-1.08361 -0.09217,-0.59271 -0.423188,-1.27955 -0.615066,-1.85971 -0.589437,-1.78222 -1.178877,-3.56444 -1.768314,-5.34666 -0.197355,-0.59672 -0.739131,-2.91568 -1.076364,-3.25448 -0.380527,-0.38232 -0.874568,-0.66421 -1.158689,-1.16414 -0.247611,-0.43562 -0.260822,-1.5038 -0.615066,-1.85971 -0.162841,-0.16361 -0.436803,-0.16901 -0.618687,-0.31115 -0.375858,-0.29375 -0.702123,-2.12294 -0.845718,-2.55711 -0.485476,-1.46788 -1.824195,-6.50449 -2.46026,-7.43882 -0.205402,-0.30173 -0.577227,-0.46771 -0.772468,-0.7761 -0.714392,-1.12845 -0.684853,-2.77 -1.307013,-3.95187 -0.37717,-0.7165 -0.91411,-0.99984 -1.312454,-1.62906 -0.55141,-0.87101 -0.48927,-2.12428 -0.999483,-3.02203 -0.422391,-0.74322 -0.531699,-0.82787 -0.847531,-1.78282 -0.153765,-0.46492 -0.115844,-1.04771 -0.461298,-1.39478 -0.05758,-0.0578 -0.17489,0.13474 -0.232457,0.0769 -0.641853,-0.64487 -0.64157,-2.93082 -1.230131,-3.71942 -0.06904,-0.0925 -0.227926,-0.0738 -0.30935,-0.15558 -0.360487,-0.36217 -0.177708,-1.26507 -0.538182,-1.62724 -0.162854,-0.16362 -0.455849,-0.14756 -0.6187,-0.31116 -0.490805,-0.49312 -1.130989,-1.291533 -1.621804,-1.784646 z"
       id="path3" />
    <path
       style="fill:#ff0000;stroke:#ffffff;stroke-width:0.264999"
       d="m 123.34159,102.27142 c 0.0796,-0.31661 0.55539,-0.87024 0.23879,-0.94984 -0.31662,-0.0796 -0.31839,1.26645 -0.23879,0.94984 0.66247,-2.635118 -0.0851,-1.56309 1.07188,-2.25519 0.14859,-0.08888 0.0483,-0.593772 0.1791,-0.712379 0.2907,-0.263574 0.92303,-0.402012 1.18862,-0.711044 0.0532,-0.0619 -0.0103,-0.195557 0.0597,-0.237459 0.15661,-0.09369 0.378,-0.02437 0.53461,-0.118061 0.21012,-0.125698 0.0195,-0.526685 0.1791,-0.712376 0.0532,-0.0619 0.1583,0.0398 0.23745,0.05969 0.11893,-0.138411 0.27076,-0.254303 0.35685,-0.415217 0.2515,-0.470071 -0.0849,-0.554423 0.47625,-0.890136 0.07,-0.0419 0.15777,0.0773 0.23747,0.0597 1.11246,-0.245679 -0.25798,-0.04742 0.35684,-0.415222 0.07,-0.0419 0.16742,0.101596 0.23746,0.0597 0.18257,-0.109209 0.29599,-0.513916 0.65401,-0.592981 0.25655,-0.05666 0.70269,0.257476 0.94983,0.238789 0.8033,-0.06072 -0.0393,-0.178201 0.35686,-0.41522 0.216,-0.129212 1.09068,-0.04722 1.30669,-0.176427 0.07,-0.0419 -0.0103,-0.195558 0.0597,-0.237459 0.07,-0.0419 0.16742,0.101596 0.23746,0.0597 0.07,-0.0419 0.006,-0.175563 0.0597,-0.237459 0.48153,-0.560284 0.10438,0.0349 0.53461,-0.118065 0.42655,-0.151703 0.76207,-0.559339 1.18862,-0.711045 0.25112,-0.493094 0.52006,-0.0027 0.77208,-0.05836 0.5775,-0.127532 0.54047,-0.702928 0.7734,-1.067899 0.4334,-0.679071 0.13841,0.118955 0.53462,-0.11806 0.14858,-0.08888 0.20827,-0.326342 0.35685,-0.415222 0.14008,-0.0838 0.33483,0.203191 0.47492,0.119396 0.07,-0.0419 -0.0172,-0.210107 0.0597,-0.237459 0.0263,-0.0094 1.41208,-0.123196 1.54414,-0.116733 0.59202,0.02897 1.3026,0.522715 1.89967,0.477579 0.11509,-0.0087 0.18206,-0.16906 0.29715,-0.177761 0.2538,-0.01919 1.25315,0.315043 1.42476,0.358186 1.65322,0.415621 3.52813,1.175415 5.22408,1.313341 0.79716,0.06483 1.51772,-0.176153 2.31622,-0.175097 0.89998,0.0012 1.77012,0.37508 2.67174,0.419212 0.18227,0.0089 0.35641,-0.07871 0.53461,-0.118066 0.25736,-0.01946 0.51484,-0.07928 0.77207,-0.05837 1.84991,0.150451 4.95297,1.245183 6.8863,1.731225 1.04965,0.263885 2.99348,0.369661 3.73963,1.192617 2.36122,2.604232 0.007,5.228912 0.22682,8.135952 0.0123,0.16276 -0.1825,0.3244 -0.1194,0.47492 0.17682,0.4215 0.61569,0.95432 0.65135,1.42607 0.0123,0.16277 -0.13168,0.31216 -0.1194,0.47492 0.0378,0.50032 0.72094,1.31953 0.76942,1.9607 0.0184,0.24414 -0.19752,0.46823 -0.17909,0.71237 0.0261,0.34528 0.41725,0.56522 0.53328,0.89147 0.19502,0.54835 -0.0963,1.52528 0.23479,2.07876 0.1325,0.22148 0.5662,0.17338 0.65268,0.41655 1.07033,3.00945 -0.51095,-0.79033 -0.061,1.24699 0.0176,0.0797 0.17556,0.007 0.23746,0.0597 0.1823,0.15667 0.23638,0.88082 0.23612,1.06922 -0.003,2.22954 -0.57637,4.30113 -1.13691,6.53078 -0.19038,0.75728 -0.53397,1.59995 -0.59697,2.37458 -0.0204,0.41566 -0.0407,0.83133 -0.061,1.247 0.0592,0.099 0.17791,0.18173 0.17776,0.29715 -8.4e-4,0.63517 -0.37849,1.5055 -0.53728,2.13712 -0.45768,1.82052 -0.91536,3.64103 -1.37304,5.46154 -0.27176,1.08099 -0.11535,-0.0146 0.0584,0.77208 0.0752,0.3407 -0.29805,0.83693 -0.29848,1.18729 -3.7e-4,0.29428 0.2962,0.5375 0.29582,0.83178 -7.7e-4,0.58463 -0.73709,3.64351 -1.07455,4.27425 -0.27378,0.51171 -0.94928,0.76853 -1.30802,1.18596 -0.60335,0.70203 -1.19438,1.38973 -1.78427,2.07609 -0.76629,-0.0139 -0.25695,0.63493 -0.47625,0.89014 -0.21078,0.24526 -0.65097,0.31524 -0.89146,0.53328 -0.19914,0.18057 -0.34757,0.52531 -0.65401,0.59298 -0.0797,0.0176 -0.18427,-0.1216 -0.23745,-0.0597 -0.1064,0.1238 -0.0424,0.331 -0.1194,0.47492 -0.41887,0.78288 -1.30633,1.32723 -1.78427,2.07611 -0.39723,0.62241 -0.38677,1.46954 -0.77474,2.07742 -0.83219,1.30393 0.21066,-0.58116 -0.95116,0.77074 -0.32042,0.37284 0.16201,0.66313 -0.47625,0.89014 -0.15381,0.0548 -0.33483,-0.20319 -0.47491,-0.1194 -0.28017,0.1676 -0.0632,0.67464 -0.23879,0.94984 -0.22026,0.34511 -0.84983,0.30662 -1.12893,0.47358 -0.1259,0.0753 -0.8993,0.94147 -1.01086,1.0082 -0.07,0.0419 -0.16742,-0.10158 -0.23746,-0.0597 -0.07,0.0419 0.0103,0.19557 -0.0597,0.23747 -0.51332,0.30706 -1.28103,0.31456 -1.72324,0.8291 -0.0532,0.0619 0.0103,0.19556 -0.0597,0.23746 -0.15661,0.0937 -0.37801,0.0244 -0.53461,0.11806 -0.44504,0.26622 -0.53583,0.95946 -0.83311,1.30536 -0.11047,0.12854 -0.93345,0.96189 -1.01086,1.0082 -0.15662,0.0937 -0.39941,-0.005 -0.53462,0.11806 -0.23845,0.21621 -0.088,0.9424 -0.29849,1.1873 -0.49457,0.57546 -1.22545,0.80391 -1.84262,1.30402 -0.12679,0.10278 0.007,0.37214 -0.1194,0.47492 -0.75859,0.6147 -1.25772,0.34888 -1.96069,0.76941 -0.15662,0.0937 -0.18852,0.34463 -0.35686,0.41522 -0.23799,0.0998 -0.52005,0.003 -0.77207,0.0584 -0.36569,0.0807 -1.34385,0.89166 -1.54548,1.12626 -0.11893,0.13841 -0.25867,0.26138 -0.35685,0.41522 -0.0439,0.0688 0.0172,0.2101 -0.0597,0.23745 -0.32482,0.11553 -0.96498,-0.028 -1.30669,0.17644 -0.15661,0.0937 -0.18491,0.35406 -0.35685,0.41521 -0.26451,0.0941 -0.98247,-0.15512 -1.24699,-0.061 -0.17195,0.0611 -0.20023,0.32153 -0.35685,0.41521 -0.15661,0.0937 -0.36862,0.0422 -0.53461,0.11807 -0.31497,0.14385 -0.56914,0.40679 -0.89147,0.53328 -0.33977,0.13333 -0.71991,0.13032 -1.06923,0.23613 -1.42164,0.43063 0.47659,-0.0834 -0.35685,0.41522 -0.07,0.0419 -0.16743,-0.10158 -0.23746,-0.0597 -0.07,0.0419 0.0103,0.19555 -0.0597,0.23745 -0.17718,0.10599 -1.38717,0.30634 -1.60384,0.3542 -0.40941,0.0904 -0.29208,0.37646 -0.65401,0.59297 -0.25254,0.15107 -0.57924,0.14476 -0.83177,0.29582 -0.07,0.0419 0.0103,0.19557 -0.0597,0.23747 -0.07,0.0419 -0.16742,-0.10159 -0.23746,-0.0597 -0.15661,0.0937 -0.20024,0.32153 -0.35685,0.41521 -0.13051,0.0781 -1.29088,0.28508 -1.60384,0.3542 -0.46471,0.10262 -0.95799,0.16958 -1.36639,0.41389 -0.07,0.0419 0.0172,0.21011 -0.0597,0.23746 -0.69599,0.24753 -1.70915,0.17542 -2.37591,0.41256 -0.53608,0.19066 -1.70804,0.81142 -2.08009,1.24432 -0.0532,0.0619 0.0103,0.19556 -0.0597,0.23746 -0.0464,0.0277 -0.78543,0.2681 -0.83177,0.29582 -0.15662,0.0937 -0.20023,0.32153 -0.35685,0.41523 -0.07,0.0419 -0.16743,-0.10159 -0.23747,-0.0597 -0.07,0.0419 0.0103,0.19555 -0.0597,0.23746 -0.15661,0.0937 -0.37799,0.0244 -0.53461,0.11806 -0.14008,0.0838 0.0207,0.39111 -0.1194,0.47492 -0.22025,0.13175 -0.64069,-0.22201 -1.00953,-0.001 -0.07,0.0419 0.0103,0.19556 -0.0597,0.23746 -0.07,0.0419 -0.15831,-0.0398 -0.23747,-0.0597 -0.11893,0.13841 -0.20023,0.32153 -0.35685,0.41523 -0.20301,0.12143 -3.40426,-0.18277 -4.09781,0.23212 -0.15662,0.0937 -0.20025,0.32153 -0.35686,0.41523 -0.22149,0.13249 -0.53408,-0.0415 -0.77208,0.0584 -0.21287,0.0893 -0.37681,0.27816 -0.59431,0.35551 -0.0769,0.0274 -0.16742,-0.10158 -0.23746,-0.0597 -0.07,0.0419 0.02,0.21986 -0.0597,0.23746 -0.15939,0.0352 -0.31188,-0.11141 -0.47491,-0.1194 -0.54786,-0.0268 -1.31582,0.1076 -1.8413,0.2945 -0.42485,0.1511 -0.92321,0.8767 -1.24832,0.9485 -0.39848,0.088 -0.78881,-0.38649 -1.18729,-0.29849 -0.15939,0.0352 0.0434,0.46261 -0.1194,0.47491 -0.24414,0.0184 -0.46752,-0.17878 -0.71237,-0.17909 -0.2577,-3.4e-4 -0.53195,0.51997 -0.65401,0.59299 -0.07,0.0419 -0.15777,-0.0773 -0.23746,-0.0597 -0.49088,0.1084 -0.96047,0.48575 -1.42608,0.65135 -0.48254,0.17161 -1.01357,-0.2247 -1.48445,-0.12073 -0.15939,0.0352 0.0207,0.39112 -0.1194,0.47492 -0.20037,0.11985 -0.72472,-0.31885 -0.94983,-0.23879 -0.64347,0.22885 -1.07356,0.68563 -1.72324,0.82911 -0.23908,0.0528 -0.50225,-0.30479 -0.71238,-0.17909 -0.1566,0.0937 -0.20023,0.32152 -0.35684,0.41521 -0.004,0.002 0.35667,-0.78071 0.59563,-1.36505 0.5391,-1.31826 0.46828,-1.49065 1.84397,-2.31356 0.1727,-0.10331 0.78489,0.0509 1.00953,0.001 0.45083,-0.0996 0.82992,-0.42038 1.18863,-0.71106 0.0634,-0.0514 -0.0172,-0.2101 0.0597,-0.23745 0.35012,-0.68177 0.68095,0.0739 1.00953,0.001 0.4094,-0.0904 0.29208,-0.37647 0.65402,-0.59298 0.14122,-0.0845 0.928,-0.15164 1.06923,-0.23613 0.07,-0.0419 -0.0103,-0.19555 0.0597,-0.23745 0.61482,-0.3678 -0.20795,0.74596 0.53461,-0.11807 0.0532,-0.0619 -0.0103,-0.19556 0.0597,-0.23746 0.21012,-0.12569 0.48169,0.26115 0.71237,0.17909 0.81155,-0.28863 0.13285,-0.32251 0.41656,-0.65267 0.35883,-0.41752 0.92308,0.10192 1.36638,-0.41389 0.22253,-0.25892 0.67578,-0.97436 0.8331,-1.30536 0.10509,-0.22114 0.0474,-0.50597 0.17909,-0.71237 0.0439,-0.0688 0.177,0.11451 0.23746,0.0597 0.19121,-0.17337 0.23381,-0.47042 0.41655,-0.65268 0.16345,-0.16302 0.44386,-0.18046 0.59431,-0.35553 0.1064,-0.12379 0.0424,-0.33099 0.1194,-0.47491 0.0861,-0.1609 0.27076,-0.25431 0.35685,-0.41522 0.30385,-0.56791 0.33331,-1.31348 0.71504,-1.83997 0.17261,-0.23833 0.4814,-0.35465 0.65401,-0.59298 0.0957,-0.13221 0.0424,-0.331 0.11939,-0.47492 0.25828,-0.48274 0.77602,-0.78414 1.07056,-1.24566 0.75614,-1.18477 0.5095,-3.46989 1.19395,-4.74917 -0.0351,-0.46576 0.49569,-0.34492 0.65401,-0.59297 0.45373,-0.71093 0.31675,-1.83302 0.65667,-2.61204 0.0352,-0.0806 0.6545,-1.60155 0.65534,-1.60252 0.19181,-0.22317 0.50662,-0.33828 0.65401,-0.59298 0.83578,-1.44428 0.57592,-3.97168 1.37304,-5.46154 0.0861,-0.16091 0.25867,-0.26138 0.35685,-0.41522 0.68372,-1.0713 0.42243,-2.84348 1.54948,-4.15486 0.37777,-0.43958 0.1639,-1.40819 0.47758,-1.89967 0.19636,-0.30768 0.4996,-0.53483 0.7137,-0.83044 0.46514,-0.64225 1.41324,-5.62146 1.67153,-6.64883 0.18812,-0.7483 1.72461,-5.90065 1.61182,-6.41138 -0.13578,-0.61484 -0.355,-0.98757 -0.35418,-1.60385 8.2e-4,-0.63126 0.23932,-1.33625 0.24012,-1.95936 4.7e-4,-0.38332 -0.32626,-0.96955 -0.41389,-1.36638 -0.0874,-0.39584 0.3576,-1.02296 0.35818,-1.42476 3.4e-4,-0.25808 0.0742,-0.55057 -0.0584,-0.77207 -0.0419,-0.07 -0.2313,0.0217 -0.23746,-0.0597 -0.0486,-0.6434 0.29775,-0.62644 0.29849,-1.1873 9.5e-4,-0.71964 -0.1211,-0.94848 -0.35419,-1.60384 -0.10939,-0.30759 0.22281,-0.62377 0.23879,-0.94983 0.0406,-0.83042 -0.28809,-0.28897 -0.47358,-1.12893 -0.0875,-0.39627 0.49375,-1.04356 0.35818,-1.42475 -0.0774,-0.2175 -0.27817,-0.37681 -0.35553,-0.59431 -0.13293,-0.37379 0.20905,-1.3433 0.18043,-1.7219 -0.0544,-0.71929 -0.18141,-1.37267 -0.2348,-2.07876 -0.052,-0.68772 0.53637,-1.44718 0.53728,-2.13713 4e-4,-0.31044 -0.20129,-0.79861 -0.17643,-1.30669 0.008,-0.16303 0.17405,-0.32113 0.1194,-0.47491 -0.0612,-0.17195 -0.35407,-0.18491 -0.41523,-0.35686 -0.11552,-0.32482 0.13785,-0.899 0.061,-1.24699 -0.1419,-0.64253 -0.35464,-1.26733 -0.53195,-1.901 z"
       id="path4" />
    <path
       style="fill:#ff0000;stroke:#ffffff;stroke-width:0.264999"
       d="M 94.755971,89.369327 C 93.870959,88.959099 93.328796,87.096686 92.552344,86.431159 91.523737,85.549496 90.236642,85.139677 89.124479,84.472379 88.607592,84.162245 88.140192,83.61174 87.655396,83.248142 87.509397,83.138641 87.328932,83.08491 87.1657,83.003294 86.920852,82.840062 86.660944,82.697427 86.431159,82.513598 86.250898,82.369392 86.147935,82.127139 85.941462,82.023904 85.640478,81.873412 85.242068,81.96572 84.962073,81.779056 84.717225,81.615824 84.698442,81.2329 84.472379,81.044515 84.35741,80.948706 82.0402,79.461153 81.779056,79.330581 c -0.459116,-0.229558 -1.234916,0.191606 -1.713931,0 -0.273225,-0.109289 -0.471339,-0.358093 -0.734544,-0.489694 -0.608952,-0.304477 -2.221048,0 -2.938169,0 -0.244848,0 -0.561409,-0.173135 -0.734542,0 -0.122425,0.122423 0.09794,0.587632 0,0.734542 -0.12805,0.192074 -0.361645,0.297622 -0.489696,0.489696 -0.339211,0.508817 0.193032,3.791577 0.489696,4.162406 0.101968,0.127463 0.343694,-0.073 0.489694,0 0.073,0.0365 -0.04527,0.176938 0,0.244848 0.12805,0.192072 0.291748,0.370925 0.489696,0.489694 0.221311,0.132786 0.503698,0.129426 0.734542,0.244848 0.263202,0.131601 0.451593,0.408853 0.734541,0.489693 0.313904,0.08969 0.662676,-0.07918 0.97939,0 0.354099,0.08853 0.628438,0.389425 0.979392,0.489697 0.235426,0.06726 0.493025,-0.04025 0.734541,0 1.544357,0.257391 3.077486,0.804431 4.652103,0.979389 1.369367,0.152151 2.795505,-0.170862 4.162406,0 1.044652,0.130583 1.877812,0.489696 2.938169,0.489696 0.154541,0 1.151194,-0.102264 1.224238,0 0.38246,0.535443 0.652928,1.142622 0.979389,1.713931 z"
       id="path5" />
    <path
       style="fill:#ff0000;stroke:#ffffff;stroke-width:0.264999"
       d="m 110.67106,109.93651 c 1.67267,0.0741 3.18889,0.10159 4.6521,-0.73454 0.86428,-0.49387 1.80351,-0.77933 2.69332,-1.22424 3.55057,-1.77528 -0.77427,0.51619 1.46909,-0.97938 0.2362,-0.15747 0.88869,-0.0771 1.22423,-0.24485 0.26102,-0.13051 1.2194,-0.73939 1.46909,-0.4897 0.0906,0.0906 0,1.22721 0,1.46909 0,1.66049 0.17018,1.33623 -0.73454,2.69332 -0.20247,0.3037 -0.23161,0.7213 -0.4897,0.97939 -0.1825,0.1825 -0.51323,0.11206 -0.73454,0.24485 -0.60794,0.0245 -0.395,0.75303 -0.73454,0.97939 -0.46511,0.31007 -6.27706,0.51935 -7.10058,0.24485 -0.71951,-0.23984 -1.59283,-2.6556 -1.71393,-2.93818 z"
       id="path6" />
    <path
       style="fill:#ff0000;stroke:#ffffff;stroke-width:0.264999"
       d="m 116.30255,85.451769 c 0.32646,0 0.97939,0.326461 0.97939,0 0,-0.326464 -1.24504,0.189751 -0.97939,0 0.80248,-0.573199 1.87278,-0.677212 2.69332,-1.224238 0.21475,-0.143163 0.1168,-0.510455 0.24485,-0.734544 0.20246,-0.354311 0.4897,-0.652925 0.73454,-0.979389 0.52712,-0.702824 1.55791,-2.13985 2.20363,-2.693321 0.27713,-0.237538 0.70226,-0.252159 0.97939,-0.489696 0.52342,-0.448649 1.7857,-2.28278 2.44847,-2.448476 0.60906,-0.152262 1.36982,-0.07657 1.95878,-0.244845 0.28295,-0.08084 0.45538,-0.396639 0.73455,-0.489696 0.0694,-0.02313 1.33646,-0.08841 1.46908,0 0.4269,0.284604 1.35984,1.766641 1.46908,2.203627 0.0594,0.237538 -0.0774,0.502261 0,0.734542 0.21728,0.651822 0.80324,1.254148 0.97939,1.958782 0.1653,0.661172 0,1.506746 0,2.203627 0,0.100819 0.0648,0.669729 0,0.734541 -0.21393,0.213942 -1.03299,0.394076 -1.22423,0.489696 -1.31445,0.65722 -2.6181,0.296657 -4.16241,0.489694 -0.2561,0.03201 -0.47773,0.219167 -0.73454,0.244848 -1.0691,0.10691 -3.86652,-0.343477 -4.89695,0 -1.47836,0.492786 -3.33782,0.244848 -4.89695,0.244848 z"
       id="path7" />
  </g>
</svg>
